<?xml version="1.0" encoding="UTF-8"?>
<svg xmlns="http://www.w3.org/2000/svg" xmlns:xlink="http://www.w3.org/1999/xlink" width="152px" height="100px" viewBox="0 0 151 100" version="1.1">
<g id="surface1">
<path style=" stroke:none;fill-rule:nonzero;fill:rgb(93.72549%,29.019608%,17.254902%);fill-opacity:1;" d="M 12.808594 24.832031 C 4.601562 35.023438 0.0859375 47.699219 0 60.789062 C -0.285156 70.988281 3.449219 80.890625 10.394531 88.359375 C 17.324219 95.824219 25.058594 99.554688 33.597656 99.554688 C 40.140625 99.746094 46.496094 97.359375 51.300781 92.914062 C 55.945312 88.902344 58.589844 83.046875 58.539062 76.910156 C 58.652344 71.511719 56.527344 66.304688 52.667969 62.53125 C 49.085938 58.761719 44.109375 56.636719 38.910156 56.65625 C 36.28125 56.714844 33.679688 57.199219 31.207031 58.09375 C 29.046875 58.933594 26.769531 59.425781 24.457031 59.558594 C 22.679688 59.507812 21.066406 58.503906 20.230469 56.933594 C 18.933594 55.285156 18.304688 52.289062 18.304688 47.640625 C 18.308594 40.039062 20.847656 32.65625 25.523438 26.667969 C 30.394531 20.257812 38.484375 14.0625 49.792969 8.085938 L 49.792969 0.257812 C 33.613281 5.539062 21.285156 13.730469 12.808594 24.832031 Z M 105.152344 24.460938 C 96.769531 34.929688 92.21875 47.953125 92.253906 61.371094 C 91.945312 71.484375 95.609375 81.316406 102.460938 88.753906 C 109.265625 96.078125 116.910156 99.742188 125.382812 99.742188 C 132.128906 99.917969 138.671875 97.410156 143.574219 92.773438 C 148.296875 88.644531 151.003906 82.671875 151 76.398438 C 151.085938 71.132812 148.953125 66.074219 145.128906 62.460938 C 141.488281 58.785156 136.519531 56.734375 131.347656 56.769531 C 128.484375 56.789062 125.648438 57.316406 122.972656 58.328125 C 120.945312 59.167969 118.800781 59.6875 116.613281 59.859375 C 114.800781 59.699219 113.164062 58.703125 112.183594 57.164062 C 110.566406 54.777344 109.789062 51.914062 109.976562 49.035156 C 109.789062 41.59375 111.9375 34.28125 116.128906 28.132812 C 120.242188 22.214844 128.75 15.527344 141.648438 8.0625 L 141.648438 0.839844 C 125.933594 5.46875 113.769531 13.34375 105.152344 24.460938 Z M 105.152344 24.460938 "/>
</g>
</svg>
