<?xml version="1.0" encoding="UTF-8"?>
<svg xmlns="http://www.w3.org/2000/svg" xmlns:xlink="http://www.w3.org/1999/xlink" width="150px" height="100px" viewBox="0 0 150 100" version="1.1">
<g id="surface1">
<rect x="0" y="0" width="150" height="100" style="fill:rgb(100%,100%,100%);fill-opacity:1;stroke:none;"/>
<path style=" stroke:none;fill-rule:nonzero;fill:rgb(92.941176%,28.627451%,16.862745%);fill-opacity:1;" d="M 71.414062 62.152344 C 75.25 58.976562 77.359375 55.027344 77.398438 50.949219 C 77.535156 47.769531 75.789062 44.683594 72.542969 42.359375 C 69.300781 40.03125 65.6875 38.871094 61.695312 38.871094 C 58.636719 38.808594 55.667969 39.554688 53.421875 40.9375 C 51.25 42.1875 50.011719 44.011719 50.039062 45.925781 C 49.984375 47.609375 50.976562 49.230469 52.78125 50.40625 C 54.457031 51.582031 56.78125 52.242188 59.210938 52.238281 C 60.441406 52.21875 61.65625 52.066406 62.8125 51.789062 C 63.824219 51.527344 64.886719 51.375 65.96875 51.332031 C 66.800781 51.347656 67.554688 51.660156 67.945312 52.152344 C 68.550781 52.664062 68.84375 53.597656 68.84375 55.046875 C 68.84375 57.414062 67.65625 59.714844 65.46875 61.582031 C 63.191406 63.578125 59.410156 65.511719 54.125 67.371094 L 54.125 69.8125 C 61.6875 68.167969 67.449219 65.613281 71.414062 62.152344 Z M 28.25 62.269531 C 32.167969 59.007812 34.292969 54.949219 34.277344 50.769531 C 34.421875 47.617188 32.710938 44.550781 29.507812 42.234375 C 26.324219 39.953125 22.753906 38.8125 18.792969 38.8125 C 15.640625 38.757812 12.582031 39.539062 10.289062 40.980469 C 8.082031 42.269531 6.816406 44.128906 6.816406 46.085938 C 6.777344 47.726562 7.773438 49.300781 9.5625 50.429688 C 11.265625 51.574219 13.585938 52.210938 16.003906 52.203125 C 17.34375 52.195312 18.667969 52.03125 19.917969 51.714844 C 20.867188 51.453125 21.867188 51.292969 22.890625 51.238281 C 23.738281 51.289062 24.503906 51.597656 24.960938 52.078125 C 25.71875 52.824219 26.082031 53.714844 25.992188 54.613281 C 26.082031 56.929688 25.078125 59.210938 23.117188 61.125 C 21.195312 62.96875 17.21875 65.054688 11.1875 67.378906 L 11.1875 69.628906 C 18.535156 68.1875 24.222656 65.734375 28.25 62.269531 Z M 28.25 62.269531 "/>
</g>
</svg>
