<svg xmlns="http://www.w3.org/2000/svg" xmlns:xlink="http://www.w3.org/1999/xlink" width="500" zoomAndPan="magnify" viewBox="0 0 375 374.999991" height="500" preserveAspectRatio="xMidYMid meet" version="1.0"><defs><clipPath id="1d9b37d6e1"><path d="M 122.328125 141 L 230 141 L 230 233 L 122.328125 233 Z M 122.328125 141 " clip-rule="nonzero"/></clipPath><clipPath id="58337a6ccf"><path d="M 144 120.570312 L 252 120.570312 L 252 254.070312 L 144 254.070312 Z M 144 120.570312 " clip-rule="nonzero"/></clipPath></defs><rect x="-37.5" width="450" fill="#ffffff" y="-37.499999" height="449.999989" fill-opacity="1"/><rect x="-37.5" width="450" fill="#ffffff" y="-37.499999" height="449.999989" fill-opacity="1"/><rect x="-37.5" width="450" fill="#ffffff" y="-37.499999" height="449.999989" fill-opacity="1"/><g clip-path="url(#1d9b37d6e1)"><path fill="#ea6f66" d="M 214.71875 188.886719 C 213.886719 205.667969 199.351562 218.550781 182.488281 218.550781 L 165.789062 218.550781 L 165.789062 232.742188 L 182.277344 232.742188 C 206.972656 232.742188 228.039062 213.648438 228.96875 189.0625 C 229.953125 163.21875 209.128906 141.878906 183.398438 141.878906 L 122.363281 141.878906 L 122.363281 232.742188 C 130.230469 232.742188 136.609375 226.386719 136.609375 218.550781 L 136.609375 156.074219 L 183.398438 156.074219 C 201.210938 156.074219 215.609375 170.949219 214.71875 188.886719 " fill-opacity="1" fill-rule="nonzero"/></g><g clip-path="url(#58337a6ccf)"><path fill="#292f45" d="M 183.269531 120.566406 L 144.417969 120.566406 C 144.417969 128.402344 150.796875 134.757812 158.664062 134.757812 L 183.398438 134.757812 C 211.96875 134.757812 236.335938 156.84375 237.414062 185.28125 C 238.550781 215.179688 214.460938 239.867188 184.695312 239.867188 L 158.664062 239.867188 L 158.664062 163.363281 L 144.417969 163.363281 L 144.417969 254.058594 L 184.695312 254.058594 C 222.316406 254.058594 252.796875 223.011719 251.671875 185.289062 C 250.589844 148.984375 219.730469 120.566406 183.269531 120.566406 " fill-opacity="1" fill-rule="nonzero"/></g></svg>